# xmcd
#
# Track frame offsets:
#	150
#	14610
#	27890
#	45597
#	61737
#	78570
#	97480
#	110942
#	128827
#	146515
#	160012
#	176475
#	189200
#	204840
#
# Disc length: 2939
#
# Revision: 4
# Processed by: cddbd v1.5.1PL0 Copyright (c) Steve Scherf et al.
# Submitted via: Grip 2.95
# Normalized: r3:DSETVAR1
#
DISCID=bb0b790e
DTITLE=Various Artist - Mr Music Country no:1
DYEAR=1900
DGENRE=
TTITLE0=The Hardest Part - Allison Moorer
TTITLE1=I Believe In Country Music - South Mountain
TTITLE2=Don't Tell Mama (I Was Drinkin') - Gary Allan
TTITLE3=The Perfect Country Song - Robin and Linda Williams
TTITLE4=The Golden Rocket - Perley Curtis
TTITLE5=Some Say I'm Running - Alecia Elliot
TTITLE6=Banks of the Guadalupe - Jimmie Dale Gilmore
TTITLE7=Dark Eyes - Dave Alvin
TTITLE8=Three Words Away - Keith Harling
TTITLE9=Bumble Bee - Ingela Söderlund
TTITLE10=Love In the Hot Afternoon - Mark Chesnutt
TTITLE11=Oh Lonesome Prairie - Jason Ringenberg
TTITLE12=Fire Ants - Brian Burns
TTITLE13=Back To Black - Terry Allan with Lucinda Williams
EXTD=
EXTT0=
EXTT1=
EXTT2=
EXTT3=
EXTT4=
EXTT5=
EXTT6=
EXTT7=
EXTT8=
EXTT9=
EXTT10=
EXTT11=
EXTT12=
EXTT13=
PLAYORDER=
